<svg xmlns="http://www.w3.org/2000/svg" xmlns:xlink="http://www.w3.org/1999/xlink" viewBox="0 0 132 132">
    <defs>
        <rect id="a" width="654" height="602" x="441" y="308" rx="40"/>
        <filter id="b" width="104.9%" height="105.3%" x="-2.4%" y="-2.7%" filterUnits="objectBoundingBox">
            <feGaussianBlur in="SourceAlpha" result="shadowBlurInner1" stdDeviation="15.5"/>
            <feOffset dy="1" in="shadowBlurInner1" result="shadowOffsetInner1"/>
            <feComposite in="shadowOffsetInner1" in2="SourceAlpha" k2="-1" k3="1" operator="arithmetic" result="shadowInnerInner1"/>
            <feColorMatrix in="shadowInnerInner1" values="0 0 0 0 0 0 0 0 0 0 0 0 0 0 0 0 0 0 0.34022618 0"/>
        </filter>
    </defs>
    <g fill="none" fill-rule="evenodd">
        <g transform="translate(-520 -366)">
            <use fill="#F3F3F3" xlink:href="#a"/>
            <use fill="#000" filter="url(#b)" xlink:href="#a"/>
            <rect width="653" height="601" x="441.5" y="308.5" stroke="#606060" stroke-linejoin="square" rx="40"/>
        </g>
        <path fill="#404F54" d="M66 132c-36.45 0-66-29.55-66-66S29.55 0 66 0s66 29.55 66 66-29.55 66-66 66zm0-35c17.12 0 31-13.88 31-31 0-17.12-13.88-31-31-31-17.12 0-31 13.88-31 31 0 17.12 13.88 31 31 31z"/>
    </g>
</svg>
