<svg xmlns="http://www.w3.org/2000/svg" viewBox="0 0 39 40">
    <g fill="none" fill-rule="evenodd" transform="translate(-957 -968)">
        <rect width="152" height="70" x="941.5" y="954.5" stroke="#979797" stroke-width="3" rx="35"/>
        <path fill="#404F54" d="M968.886 1000.187a13.91 13.91 0 0 0 7.364 2.099c7.791 0 14.107-6.396 14.107-14.286s-6.316-14.286-14.107-14.286c-6.79 0-12.46 4.859-13.804 11.33L957 983.51c2.012-8.884 9.867-15.51 19.25-15.51 10.908 0 19.75 8.954 19.75 20s-8.842 20-19.75 20c-4.639 0-8.904-1.62-12.274-4.33l-4.227 2.996-.2-13.81 12.746 4.914-3.409 2.417z"/>
    </g>
</svg>
